<?xml version="1.0" encoding="utf-8"?>
<!-- Generator: Adobe Illustrator 21.1.0, SVG Export Plug-In . SVG Version: 6.00 Build 0)  -->
<svg version="1.1" id="Layer_1" xmlns="http://www.w3.org/2000/svg" xmlns:xlink="http://www.w3.org/1999/xlink" x="0px" y="0px"
	 viewBox="0 0 512 512" style="enable-background:new 0 0 512 512;" xml:space="preserve">
<style>
	.inner { fill: #ffffff; }
	.outer { fill: #000000; }
	@media (prefers-color-scheme: dark) {
	  .inner { fill: #333; }
	  .outer { fill: #ffffff;}
	}
  </style>
<g>
	<path class="inner" d="M252.2,489.4c57.7-44.9,140.7-168,165.7-242.8c24.7-73.9,0.2-146.5-65.4-194C291.2,8.2,220.2,8.4,159,53
		c-65.3,47.6-90,120.5-64.4,194.2C126.8,340.2,188.4,413.9,252.2,489.4z"/>
	<path class="outer" d="M252.2,489.4c-63.7-75.6-125.4-149.2-157.6-242.1C69.1,173.5,93.7,100.7,159,53c61.2-44.6,132.1-44.8,193.4-0.5
		c65.6,47.5,90.1,120.1,65.4,194C392.9,321.4,309.9,444.5,252.2,489.4z M256.3,295.8c55.6-0.1,104.5-49.2,104.4-104.9
		c-0.1-55.7-49.2-104.5-104.9-104.4c-55.7,0.1-104.5,49.2-104.4,104.9C151.5,247,200.6,295.9,256.3,295.8z"/>
</g>
</svg>
