<svg viewBox="0 0 512 512" xmlns="http://www.w3.org/2000/svg"><path d="m48 366.92 192 113.08v-196l-192-114zm144-78.92c8.84 0 16 10.75 16 24s-7.16 24-16 24-16-10.75-16-24 7.16-24 16-24zm-96 32c8.84 0 16 10.75 16 24s-7.16 24-16 24-16-10.75-16-24 7.16-24 16-24z"/><path d="m272 284v196l192-113.08v-196.92zm48 140c-8.84 0-16-10.75-16-24s7.16-24 16-24 16 10.75 16 24-7.16 24-16 24zm0-88c-8.84 0-16-10.75-16-24s7.16-24 16-24 16 10.75 16 24-7.16 24-16 24zm96 32c-8.84 0-16-10.75-16-24s7.16-24 16-24 16 10.75 16 24-7.16 24-16 24zm0-88c-8.84 0-16-10.75-16-24s7.16-24 16-24 16 10.75 16 24-7.16 24-16 24z"/><path d="m256 32-192 112 192 112 192-112zm0 120c-13.25 0-24-7.16-24-16s10.75-16 24-16 24 7.16 24 16-10.75 16-24 16z"/></svg>