<svg viewBox="0 0 512 512" xmlns="http://www.w3.org/2000/svg"><g fill="none" stroke="#000" stroke-linecap="round" stroke-width="32"><path d="m201.14 64 54.86-32 54.86 32" stroke-linejoin="round"/><path d="m256 32v80" stroke-miterlimit="10"/><path d="m310.86 448-54.86 32-54.86-32" stroke-linejoin="round"/><path d="m256 480v-80" stroke-miterlimit="10"/><path d="m64 207.51v-63.51l53.15-31.51" stroke-linejoin="round"/><path d="m64 144 67.29 40" stroke-miterlimit="10"/><path d="m448 304.49v63.51l-53.15 31.51" stroke-linejoin="round"/><path d="m448 368-67.29-40" stroke-miterlimit="10"/><path d="m117.15 400-53.15-32v-63.51" stroke-linejoin="round"/><path d="m64 368 66.64-40" stroke-miterlimit="10"/><path d="m394.85 112.49 53.15 31.51v63.51" stroke-linejoin="round"/><g stroke-miterlimit="10"><path d="m448 144-67.29 40"/><path d="m256 320v-64l54.86-32"/><path d="m256 256-54.86-32"/></g></g></svg>