<svg viewBox="0 0 512 512" xmlns="http://www.w3.org/2000/svg"><path d="m380.91 199 42.47-73.57a8.63 8.63 0 0 0 -3.12-11.76 8.52 8.52 0 0 0 -11.71 3.12l-43 74.52c-32.83-15-69.78-23.35-109.52-23.35s-76.69 8.36-109.52 23.35l-43-74.52a8.6 8.6 0 1 0 -14.88 8.64l42.37 73.57c-73.2 39.64-122.81 113.77-131 200.55h512c-8.19-86.78-57.8-160.91-131.09-200.55zm-242.46 128.65a21.46 21.46 0 1 1 21.46-21.46 21.47 21.47 0 0 1 -21.46 21.46zm235 0a21.46 21.46 0 1 1 21.55-21.46 21.47 21.47 0 0 1 -21.51 21.46z"/></svg>