<svg viewBox="0 0 512 512" xmlns="http://www.w3.org/2000/svg"><path d="m259.38 474.11h-.13c-65.08-.44-115.12-21.9-148.75-63.78-29.88-37.3-45.32-89.16-45.85-154.16v-.31c.52-65.04 15.97-116.86 45.89-154.16 33.59-41.92 83.67-63.38 148.71-63.82h.26c49.9.35 91.65 13.17 124.06 38.13 30.49 23.47 51.95 56.88 63.78 99.37l-37.08 10.34c-20.07-71.98-70.84-108.75-150.93-109.32-52.87.39-92.87 17.01-118.87 49.38-24.3 30.32-36.86 74.11-37.34 130.21.48 56.1 13.04 99.9 37.38 130.21 26 32.41 66 49.03 118.87 49.38 47.68-.35 79.22-11.47 105.44-37.17 29.93-29.31 29.4-65.3 19.8-87.2-5.63-12.91-15.88-23.64-29.71-31.8-3.49 24.56-11.3 44.45-23.34 59.46-16.1 20.02-38.91 30.97-67.79 32.54-21.85 1.18-42.92-3.97-59.24-14.57-19.32-12.52-30.62-31.63-31.84-53.87-1.18-21.64 7.42-41.53 24.17-56.01 16.01-13.83 38.52-21.94 65.13-23.47 19.59-1.09 37.95-.22 54.88 2.57-2.27-13.48-6.81-24.21-13.61-31.93-9.34-10.64-23.77-16.05-42.88-16.18h-.52c-15.36 0-36.21 4.23-49.47 23.99l-31.93-21.42c17.8-26.44 46.68-41.01 81.4-41.01h.79c58.06.35 92.65 35.9 96.1 97.93 1.96.83 3.93 1.7 5.85 2.57 27.09 12.74 46.89 32.02 57.32 55.79 14.48 33.11 15.83 87.07-28.14 130.13-33.63 32.89-74.42 47.77-132.26 48.16h-.13zm18.23-212.48c-4.41 0-8.86.13-13.44.39-33.37 1.88-54.18 17.19-53 38.95 1.22 22.81 26.39 33.41 50.6 32.11 22.25-1.18 51.21-9.86 56.1-67.44-12.3-2.66-25.78-4.01-40.26-4.01z"/></svg>